<svg width="471" height="55" viewBox="0 0 471 55" fill="none" xmlns="http://www.w3.org/2000/svg">
<g clip-path="url(#clip0_7_134)">
<path d="M0 9.16675V13.7501H31.4355L0 45.2987L3.19683 48.507L42.4722 9.16675H0Z" fill="#F8B749"/>
<path d="M47.0391 4.58333L51.606 0H0V4.58333H47.0391Z" fill="#ED362F"/>
<path d="M50.2358 7.79171V55H54.8027V3.20837L50.2358 7.79171Z" fill="#43B85C"/>
<path d="M45.669 55V12.375L6.46973 51.7917L9.66656 55L41.1021 23.4514V55H45.669Z" fill="#2CB4E2"/>
<path d="M82.9655 55C80.682 55 79.5403 53.8542 79.5403 51.5625V3.4375C79.5403 1.14583 80.682 0 82.9655 0H101.842C106.789 0 110.519 1.29861 113.183 3.97222C115.847 6.64583 117.141 10.3889 117.141 15.3542V17.7986C117.141 22.7639 115.847 26.5069 113.183 29.1806C110.519 31.8542 106.789 33.1528 101.842 33.1528H86.3145V51.6389C86.3906 53.8542 85.2489 55 82.9655 55ZM86.3906 26.2778H101.918C104.963 26.2778 107.17 25.6667 108.464 24.3681C109.758 23.0694 110.367 20.8542 110.367 17.7986V15.3542C110.367 12.2986 109.758 10.0833 108.464 8.78472C107.17 7.48611 104.963 6.79861 101.918 6.79861H86.3906V26.2778Z" fill="black"/>
<path d="M143.934 55.0001C142.792 55.0001 141.955 54.6945 141.422 54.1598C140.889 53.6251 140.585 52.7084 140.585 51.6389V6.87505H124.829C123.687 6.87505 122.85 6.5695 122.317 6.03478C121.784 5.50005 121.48 4.58339 121.48 3.51394C121.48 2.36811 121.784 1.52783 122.317 0.99311C122.85 0.458387 123.763 0.152832 124.829 0.152832H162.962C164.104 0.152832 164.941 0.458387 165.474 0.99311C166.007 1.52783 166.312 2.4445 166.312 3.51394C166.312 4.65978 166.007 5.50005 165.474 6.03478C164.941 6.5695 164.028 6.87505 162.962 6.87505H147.283V51.5626C147.283 52.632 146.978 53.4723 146.445 54.0834C145.913 54.6945 145.075 55.0001 143.934 55.0001Z" fill="black"/>
<path d="M188.461 55.0001C182.296 55.0001 177.729 53.5487 174.76 50.5695C171.792 47.5903 170.345 43.007 170.345 36.8195V18.1806C170.345 11.9167 171.792 7.33339 174.76 4.35422C177.729 1.37506 182.219 -0.0763319 188.385 5.69669e-05H198.127C203.227 5.69669e-05 207.033 1.0695 209.697 3.132C212.361 5.1945 213.883 8.55561 214.34 13.0626C214.492 14.2084 214.264 15.0487 213.655 15.6598C213.046 16.2709 212.209 16.5764 211.067 16.5764C209.012 16.5764 207.87 15.4306 207.49 13.1389C207.185 10.6181 206.348 8.93756 204.902 8.09728C203.456 7.257 201.172 6.79867 197.975 6.79867H188.233C185.34 6.79867 183.133 7.10422 181.534 7.79172C179.936 8.47922 178.718 9.62506 178.033 11.3056C177.348 12.9862 176.967 15.2778 176.967 18.1806V36.8195C176.967 39.7223 177.348 42.0139 178.033 43.6181C178.718 45.2987 179.86 46.4445 181.534 47.132C183.209 47.8195 185.416 48.2015 188.309 48.2015H197.975C200.487 48.2015 202.466 47.8959 203.836 47.3612C205.282 46.8265 206.272 45.8334 206.805 44.4584C207.337 43.0834 207.642 41.0973 207.642 38.5001V34.6806L201.324 34.6042C199.041 34.6042 197.899 33.4584 197.899 31.1667C197.899 28.8751 199.041 27.7292 201.324 27.7292L210.991 27.8056C213.274 27.8056 214.416 28.9515 214.416 31.2431V38.5001C214.416 44.2292 213.046 48.4306 210.382 51.1042C207.718 53.7778 203.532 55.0765 197.899 55.0765H188.461V55.0001Z" fill="black"/>
<path d="M239.763 20.8542C238.925 20.8542 238.545 20.4723 238.545 19.632V2.06255C238.545 1.22228 238.925 0.840332 239.763 0.840332H246.689C248.516 0.840332 249.886 1.29867 250.799 2.29172C251.789 3.28478 252.245 4.65978 252.245 6.41672V7.33339C252.245 9.16672 251.789 10.5417 250.799 11.4584C249.81 12.4514 248.44 12.9098 246.689 12.9098H241.056V19.632C240.98 20.3959 240.6 20.8542 239.763 20.8542ZM240.98 10.3126H246.613C247.755 10.3126 248.516 10.0834 248.972 9.62506C249.429 9.16672 249.657 8.32644 249.657 7.257V6.34033C249.657 5.1945 249.429 4.43061 248.972 3.97228C248.516 3.51394 247.678 3.28478 246.613 3.28478H240.98V10.3126Z" fill="black"/>
<path d="M268.306 20.8542C268.001 21.0834 267.697 21.1597 267.392 21.0834C267.088 21.007 266.859 20.7778 266.631 20.4722L262.064 12.8334H257.954V19.5556C257.954 20.3959 257.573 20.7778 256.736 20.7778C255.899 20.7778 255.518 20.3959 255.518 19.5556V1.98614C255.518 1.14586 255.899 0.763916 256.736 0.763916H263.663C265.489 0.763916 266.859 1.22225 267.773 2.2153C268.762 3.20836 269.219 4.58336 269.219 6.34031V7.25697C269.219 8.86114 268.838 10.0834 268.153 11C267.392 11.9167 266.403 12.5278 265.033 12.757L268.915 19.25C269.143 19.8611 268.991 20.4722 268.306 20.8542ZM257.878 10.3125H263.51C264.652 10.3125 265.413 10.0834 265.87 9.62503C266.327 9.16669 266.555 8.32642 266.555 7.25697V6.34031C266.555 5.19447 266.327 4.43058 265.87 3.97225C265.413 3.51392 264.576 3.28475 263.51 3.28475H257.878V10.3125Z" fill="black"/>
<path d="M278.581 20.8542C276.298 20.8542 274.699 20.3194 273.557 19.25C272.492 18.1806 271.959 16.5 271.959 14.2083V7.33333C271.959 5.04167 272.492 3.36111 273.557 2.29167C274.623 1.22222 276.298 0.6875 278.505 0.6875H282.006C284.29 0.6875 285.964 1.22222 287.03 2.29167C288.095 3.36111 288.628 5.04167 288.628 7.33333V14.1319C288.628 16.4236 288.095 18.0278 287.03 19.1736C285.964 20.2431 284.29 20.7778 282.006 20.7778H278.581V20.8542ZM278.581 18.3333H282.082C283.148 18.3333 283.985 18.1806 284.594 17.9514C285.203 17.7222 285.584 17.2639 285.888 16.6528C286.116 16.0417 286.269 15.2014 286.269 14.1319V7.40972C286.269 6.34028 286.116 5.57639 285.888 4.96528C285.66 4.35417 285.203 3.97222 284.594 3.66667C283.985 3.4375 283.148 3.28472 282.082 3.28472H278.581C277.515 3.28472 276.754 3.36111 276.145 3.66667C275.536 3.89583 275.08 4.35417 274.851 4.96528C274.623 5.57639 274.471 6.41667 274.471 7.48611V14.2847C274.471 15.3542 274.623 16.1944 274.851 16.8056C275.08 17.4167 275.536 17.7986 276.145 18.1042C276.678 18.1806 277.515 18.3333 278.581 18.3333Z" fill="black"/>
<path d="M297.458 20.8542C295.631 20.8542 294.185 20.4722 293.271 19.7084C292.282 18.9445 291.749 17.7222 291.521 16.1181C291.445 15.7361 291.597 15.3542 291.749 15.125C291.977 14.8959 292.282 14.8195 292.662 14.8195C293.424 14.8195 293.804 15.2014 293.956 16.0417C294.109 16.9584 294.413 17.5695 294.946 17.875C295.479 18.1806 296.316 18.3334 297.458 18.3334H299.893C300.807 18.3334 301.492 18.257 302.025 18.0278C302.557 17.7986 302.938 17.4931 303.09 16.9584C303.319 16.4236 303.395 15.7361 303.395 14.8195V1.98614C303.395 1.14586 303.775 0.763916 304.613 0.763916C305.45 0.763916 305.83 1.14586 305.83 1.98614V14.7431C305.83 16.8056 305.374 18.3334 304.384 19.3264C303.395 20.3195 301.872 20.7778 299.817 20.7778H297.458V20.8542Z" fill="black"/>
<path d="M312.605 20.8542C311.767 20.8542 311.387 20.4723 311.387 19.632V2.06255C311.387 1.22228 311.767 0.840332 312.605 0.840332H323.185C324.022 0.840332 324.402 1.22228 324.402 2.06255C324.402 2.90283 324.022 3.28478 323.185 3.28478H313.822V9.47228H319.683C320.521 9.47228 320.901 9.85422 320.901 10.6945C320.901 11.5348 320.521 11.9167 319.683 11.9167H313.822V18.3334H323.185C324.022 18.3334 324.402 18.7153 324.402 19.5556C324.402 20.3959 324.022 20.7778 323.185 20.7778H312.605V20.8542Z" fill="black"/>
<path d="M334.45 20.8542C332.166 20.8542 330.568 20.3195 329.426 19.25C328.36 18.1806 327.828 16.5 327.828 14.2084V7.40975C327.828 5.11808 328.36 3.43753 329.426 2.36808C330.492 1.29864 332.166 0.763916 334.374 0.763916H337.951C339.778 0.763916 341.224 1.14586 342.213 1.90975C343.203 2.67364 343.736 3.89586 343.888 5.50003C343.964 5.88197 343.888 6.26392 343.66 6.41669C343.431 6.64586 343.127 6.72225 342.746 6.72225C341.985 6.72225 341.604 6.3403 341.452 5.50003C341.376 4.58336 341.072 3.97225 340.539 3.66669C340.006 3.36114 339.169 3.20836 338.027 3.20836H334.45C333.384 3.20836 332.623 3.28475 332.014 3.5903C331.405 3.81947 331.024 4.27781 330.72 4.88892C330.492 5.50003 330.339 6.3403 330.339 7.40975V14.2084C330.339 15.2778 330.492 16.1181 330.72 16.7292C330.948 17.3403 331.405 17.7222 332.014 18.0278C332.623 18.257 333.46 18.4097 334.526 18.4097H338.027C339.169 18.4097 340.006 18.257 340.539 17.9514C341.072 17.6459 341.376 17.0347 341.452 16.1181C341.604 15.2778 341.985 14.8959 342.746 14.8959C343.127 14.8959 343.507 14.9722 343.66 15.2014C343.888 15.4306 343.964 15.7361 343.888 16.1181C343.736 17.7986 343.203 19.0209 342.213 19.7084C341.224 20.4722 339.854 20.8542 337.951 20.8542H334.45Z" fill="black"/>
<path d="M354.468 20.8542C354.087 20.8542 353.783 20.7778 353.554 20.5487C353.326 20.3195 353.25 20.0139 353.25 19.632V3.28478H347.541C347.161 3.28478 346.856 3.20839 346.628 2.97922C346.4 2.75005 346.323 2.4445 346.323 2.06255C346.323 1.68061 346.4 1.37505 346.628 1.14589C346.856 0.916721 347.161 0.840332 347.541 0.840332H361.47C361.851 0.840332 362.155 0.916721 362.384 1.14589C362.612 1.37505 362.688 1.68061 362.688 2.06255C362.688 2.4445 362.612 2.75005 362.384 2.97922C362.155 3.20839 361.851 3.28478 361.47 3.28478H355.762V19.5556C355.762 19.9376 355.686 20.2431 355.457 20.4723C355.229 20.7014 354.924 20.8542 354.468 20.8542Z" fill="black"/>
<path d="M381.869 20.8542C381.489 20.8542 381.184 20.7778 380.956 20.5487C380.727 20.3195 380.651 20.0139 380.651 19.632V3.28478H374.943C374.562 3.28478 374.258 3.20839 374.029 2.97922C373.801 2.75005 373.725 2.4445 373.725 2.06255C373.725 1.68061 373.801 1.37505 374.029 1.14589C374.258 0.916721 374.562 0.840332 374.943 0.840332H388.872C389.252 0.840332 389.557 0.916721 389.785 1.14589C390.013 1.37505 390.09 1.68061 390.09 2.06255C390.09 2.4445 390.013 2.75005 389.785 2.97922C389.557 3.20839 389.252 3.28478 388.872 3.28478H383.163V19.5556C383.163 19.9376 383.087 20.2431 382.859 20.4723C382.554 20.7014 382.25 20.8542 381.869 20.8542Z" fill="black"/>
<path d="M395.19 20.8542C394.352 20.8542 393.972 20.4723 393.972 19.632V2.06255C393.972 1.22228 394.352 0.840332 395.19 0.840332H405.77C406.607 0.840332 406.987 1.22228 406.987 2.06255C406.987 2.90283 406.607 3.28478 405.77 3.28478H396.407V9.47228H402.268C403.106 9.47228 403.486 9.85422 403.486 10.6945C403.486 11.5348 403.106 11.9167 402.268 11.9167H396.407V18.3334H405.77C406.607 18.3334 406.987 18.7153 406.987 19.5556C406.987 20.3959 406.607 20.7778 405.77 20.7778H395.19V20.8542Z" fill="black"/>
<path d="M410.793 20.7014C410.032 20.3959 409.804 19.8611 410.108 19.0972L417.111 1.75697C417.415 1.06947 417.872 0.763916 418.481 0.763916H418.557C419.166 0.763916 419.622 1.14586 419.851 1.75697L427.006 19.0972C427.31 19.8611 427.082 20.3959 426.321 20.7014C425.559 21.007 425.027 20.7778 424.722 20.0139L423.124 16.1181H413.914L412.391 20.0139C412.087 20.7778 411.554 21.007 410.793 20.7014ZM414.903 13.6736H422.058L418.405 4.73614L414.903 13.6736Z" fill="black"/>
<path d="M432.562 20.8542C431.725 20.8542 431.344 20.4722 431.344 19.632V2.06253C431.344 1.22225 431.725 0.840305 432.562 0.840305C433.095 0.840305 433.551 1.06947 433.932 1.60419L440.858 12.0695L440.326 12.1459L447.404 1.5278C447.709 0.993083 448.242 0.763916 448.927 0.763916C449.612 0.763916 449.916 1.14586 449.916 1.98614V19.5556C449.916 20.3959 449.535 20.7778 448.698 20.7778C447.861 20.7778 447.48 20.3959 447.48 19.5556V4.50697L448.242 4.73614L442.076 13.9028C441.696 14.4375 441.239 14.6667 440.554 14.6667C440.097 14.6667 439.717 14.4375 439.336 13.9028L433.171 4.73614L433.932 4.9653V19.5556C433.856 20.3959 433.399 20.8542 432.562 20.8542Z" fill="black"/>
<path d="M461.029 20.8542C459.354 20.8542 458.06 20.5487 457.071 19.8612C456.158 19.1737 455.549 18.1042 455.32 16.7292C455.244 16.2709 455.396 15.9653 455.549 15.7362C455.777 15.507 456.081 15.4306 456.462 15.4306C456.843 15.4306 457.147 15.507 457.375 15.7362C457.604 15.9653 457.68 16.2709 457.756 16.6528C457.908 17.3403 458.213 17.7987 458.669 18.0278C459.126 18.257 459.887 18.4098 460.877 18.4098H465.139C466.433 18.4098 467.27 18.1806 467.727 17.7223C468.184 17.2639 468.412 16.4237 468.412 15.1251C468.412 13.8264 468.184 12.9862 467.727 12.5278C467.27 12.0695 466.433 11.8403 465.139 11.8403H461.486C459.659 11.8403 458.289 11.382 457.375 10.4653C456.462 9.54867 456.005 8.17367 456.005 6.34033C456.005 4.507 456.462 3.132 457.375 2.21533C458.289 1.29867 459.659 0.840332 461.486 0.840332H464.987C466.585 0.840332 467.803 1.14589 468.64 1.83339C469.554 2.4445 470.087 3.43755 470.315 4.81255C470.391 5.27089 470.315 5.57644 470.087 5.80561C469.858 6.03478 469.554 6.11117 469.097 6.11117C468.717 6.11117 468.412 6.03478 468.184 5.80561C467.955 5.57644 467.879 5.27089 467.803 4.88894C467.651 4.27783 467.346 3.89589 466.89 3.66672C466.433 3.43755 465.748 3.36117 464.911 3.36117H461.41C460.268 3.36117 459.43 3.59033 459.05 3.97228C458.669 4.35422 458.441 5.1945 458.441 6.34033C458.441 7.48617 458.669 8.32644 459.05 8.70839C459.43 9.16672 460.268 9.39589 461.41 9.39589H465.063C466.966 9.39589 468.412 9.85422 469.402 10.8473C470.315 11.7639 470.848 13.2153 470.848 15.2014C470.848 17.1876 470.391 18.6389 469.402 19.5556C468.488 20.4723 467.042 20.9306 465.063 20.9306H461.029V20.8542Z" fill="black"/>
<path d="M245.014 53.9306C242.731 53.9306 241.132 53.3959 239.991 52.3264C238.925 51.257 238.392 49.5764 238.392 47.2848V40.4862C238.392 38.1945 238.925 36.5139 239.991 35.4445C241.056 34.3751 242.731 33.8403 244.938 33.8403H248.516C250.342 33.8403 251.789 34.2223 252.778 34.9862C253.768 35.7501 254.3 36.9723 254.453 38.5764C254.529 38.9584 254.453 39.3403 254.224 39.4931C253.996 39.7223 253.691 39.7987 253.311 39.7987C252.55 39.7987 252.169 39.4167 252.017 38.5764C251.941 37.6598 251.636 37.0487 251.104 36.7431C250.571 36.4376 249.733 36.2848 248.592 36.2848H245.014C243.949 36.2848 243.188 36.3612 242.579 36.6667C241.97 36.8959 241.589 37.3542 241.285 37.9653C241.056 38.5764 240.904 39.4167 240.904 40.4862V47.3612C240.904 48.4306 241.056 49.2709 241.285 49.882C241.513 50.4931 241.97 50.8751 242.579 51.1806C243.188 51.4098 244.025 51.5626 245.09 51.5626H248.592C249.505 51.5626 250.19 51.4862 250.723 51.257C251.256 51.0278 251.636 50.7223 251.789 50.1876C252.017 49.6528 252.093 48.9653 252.093 48.0487V46.6737H249.81C248.972 46.6737 248.592 46.2917 248.592 45.4514C248.592 44.6112 248.972 44.2292 249.81 44.2292H253.311C254.148 44.2292 254.529 44.6112 254.529 45.4514V48.0487C254.529 50.1112 254.072 51.7153 253.083 52.632C252.093 53.6251 250.571 54.0834 248.516 54.0834H245.014V53.9306Z" fill="black"/>
<path d="M260.237 53.8542C259.476 53.5487 259.248 53.014 259.552 52.2501L266.555 34.9098C266.859 34.2223 267.316 33.9167 267.925 33.9167H268.001C268.61 33.9167 269.067 34.2987 269.295 34.9098L276.45 52.2501C276.754 53.014 276.526 53.5487 275.765 53.8542C275.004 54.1598 274.471 53.9306 274.166 53.1667L272.568 49.2709H263.358L261.836 53.1667C261.531 53.9306 260.999 54.1598 260.237 53.8542ZM264.272 46.8265H271.426L267.773 37.889L264.272 46.8265Z" fill="black"/>
<path d="M285.888 53.9305C285.508 53.9305 285.203 53.8541 284.975 53.625C284.746 53.3958 284.67 53.0903 284.67 52.7083V36.4375H278.962C278.581 36.4375 278.277 36.3611 278.048 36.1319C277.82 35.9028 277.744 35.5972 277.744 35.2153C277.744 34.8333 277.82 34.5278 278.048 34.2986C278.277 34.0694 278.581 33.993 278.962 33.993H292.891C293.271 33.993 293.576 34.0694 293.804 34.2986C294.033 34.5278 294.109 34.8333 294.109 35.2153C294.109 35.5972 294.033 35.9028 293.804 36.1319C293.576 36.3611 293.271 36.4375 292.891 36.4375H287.182V52.7083C287.182 53.0903 287.106 53.3958 286.878 53.625C286.649 53.8541 286.345 53.9305 285.888 53.9305Z" fill="black"/>
<path d="M300.731 53.9306C300.426 53.9306 300.122 53.7779 299.893 53.5487C299.665 53.3195 299.513 53.014 299.513 52.7084V35.139C299.513 34.8334 299.665 34.5279 299.893 34.2987C300.122 34.0695 300.426 33.9167 300.731 33.9167C301.035 33.9167 301.339 34.0695 301.568 34.2987C301.796 34.5279 301.948 34.8334 301.948 35.139V42.5487H313.975V35.139C313.975 34.8334 314.127 34.5279 314.355 34.2987C314.583 34.0695 314.888 33.9167 315.192 33.9167C315.497 33.9167 315.801 34.0695 316.03 34.2987C316.258 34.5279 316.41 34.8334 316.41 35.139V52.7084C316.41 53.014 316.258 53.3195 316.03 53.5487C315.801 53.7779 315.497 53.9306 315.192 53.9306C314.888 53.9306 314.583 53.7779 314.355 53.5487C314.127 53.3195 313.975 53.014 313.975 52.7084V45.0695H301.948V52.7084C301.948 53.014 301.796 53.3195 301.568 53.5487C301.339 53.8542 301.035 53.9306 300.731 53.9306Z" fill="black"/>
<path d="M325.316 53.9306C324.478 53.9306 324.098 53.5487 324.098 52.7084V35.139C324.098 34.2987 324.478 33.9167 325.316 33.9167H335.896C336.733 33.9167 337.114 34.2987 337.114 35.139C337.114 35.9792 336.733 36.3612 335.896 36.3612H326.534V42.5487H332.394C333.232 42.5487 333.612 42.9306 333.612 43.7709C333.612 44.6112 333.232 44.9931 332.394 44.9931H326.534V51.4098H335.896C336.733 51.4098 337.114 51.7917 337.114 52.632C337.114 53.4723 336.733 53.8542 335.896 53.8542H325.316V53.9306Z" fill="black"/>
<path d="M356.142 54.007C355.838 54.2362 355.533 54.3126 355.229 54.2362C354.924 54.1598 354.696 53.9306 354.468 53.6251L349.901 45.9862H345.791V52.7084C345.791 53.5487 345.41 53.9306 344.573 53.9306C343.736 53.9306 343.355 53.5487 343.355 52.7084V35.139C343.355 34.2987 343.736 33.9167 344.573 33.9167H351.499C353.326 33.9167 354.696 34.3751 355.61 35.3681C356.599 36.3612 357.056 37.7362 357.056 39.4931V40.4098C357.056 42.014 356.675 43.2362 355.99 44.1529C355.229 45.0695 354.239 45.6806 352.869 45.9098L356.751 52.4029C356.98 53.014 356.827 53.5487 356.142 54.007ZM345.791 43.4654H351.423C352.565 43.4654 353.326 43.2362 353.783 42.7779C354.239 42.3195 354.468 41.4792 354.468 40.4098V39.4931C354.468 38.3473 354.239 37.5834 353.783 37.1251C353.326 36.6667 352.489 36.4376 351.423 36.4376H345.791V43.4654Z" fill="black"/>
<path d="M364.439 53.9306C363.982 53.9306 363.678 53.8542 363.526 53.6251C363.297 53.3959 363.221 53.0904 363.221 52.7084V35.139C363.221 34.6806 363.297 34.3751 363.526 34.2223C363.754 33.9931 364.058 33.9167 364.439 33.9167C364.896 33.9167 365.2 33.9931 365.352 34.2223C365.581 34.4515 365.657 34.757 365.657 35.139V52.7084C365.657 53.1667 365.581 53.4723 365.352 53.6251C365.124 53.8542 364.82 53.9306 364.439 53.9306Z" fill="black"/>
<path d="M374.486 53.9306C373.649 53.9306 373.268 53.5487 373.268 52.7084V35.139C373.268 34.2987 373.649 33.9167 374.486 33.9167C374.943 33.9167 375.323 34.1459 375.704 34.6806L387.578 50.0348H386.969V35.139C386.969 34.2987 387.35 33.9167 388.187 33.9167C389.024 33.9167 389.405 34.2987 389.405 35.139V52.7084C389.405 53.5487 389.024 53.9306 388.187 53.9306C387.73 53.9306 387.35 53.7015 386.969 53.1667L375.095 37.8126H375.704V52.7084C375.704 53.5487 375.247 53.9306 374.486 53.9306Z" fill="black"/>
<path d="M402.877 53.9306C400.593 53.9306 398.995 53.3959 397.853 52.3264C396.788 51.257 396.255 49.5764 396.255 47.2848V40.4862C396.255 38.1945 396.788 36.5139 397.853 35.4445C398.919 34.3751 400.593 33.8403 402.801 33.8403H406.378C408.205 33.8403 409.651 34.2223 410.641 34.9862C411.63 35.7501 412.163 36.9723 412.315 38.5764C412.391 38.9584 412.315 39.3403 412.087 39.4931C411.859 39.7223 411.554 39.7987 411.173 39.7987C410.412 39.7987 410.032 39.4167 409.879 38.5764C409.803 37.6598 409.499 37.0487 408.966 36.7431C408.433 36.4376 407.596 36.2848 406.454 36.2848H402.877C401.811 36.2848 401.05 36.3612 400.441 36.6667C399.832 36.8959 399.452 37.3542 399.147 37.9653C398.919 38.5764 398.767 39.4167 398.767 40.4862V47.3612C398.767 48.4306 398.919 49.2709 399.147 49.882C399.376 50.4931 399.832 50.8751 400.441 51.1806C401.05 51.4098 401.887 51.5626 402.953 51.5626H406.454C407.368 51.5626 408.053 51.4862 408.586 51.257C409.118 51.0278 409.499 50.7223 409.651 50.1876C409.88 49.6528 409.956 48.9653 409.956 48.0487V46.6737H407.672C406.835 46.6737 406.454 46.2917 406.454 45.4514C406.454 44.6112 406.835 44.2292 407.672 44.2292H411.173C412.011 44.2292 412.391 44.6112 412.391 45.4514V48.0487C412.391 50.1112 411.935 51.7153 410.945 52.632C409.956 53.6251 408.433 54.0834 406.378 54.0834H402.877V53.9306Z" fill="black"/>
</g>
<defs>
<clipPath id="clip0_7_134">
<rect width="471" height="55" fill="white"/>
</clipPath>
</defs>
</svg>
